<svg width="345" height="303" viewBox="0 0 345 303" fill="none" xmlns="http://www.w3.org/2000/svg">
<path d="M85.4115 262.63C85.3698 257.745 87.2656 253.385 91.099 249.552L137.661 202.99L153.964 219.292L108.807 264.448L147.156 302.802L192.312 257.646L192.443 257.776L202.755 148.453C203.458 140.714 206.349 134.302 211.432 129.219L248.615 92.0365C252.443 88.2083 256.802 86.3125 261.693 86.349C262.807 86.3594 263.891 86.5 264.953 86.7031L178.245 0L0 178.245L85.5365 263.781C85.5104 263.396 85.4115 263.026 85.4115 262.63ZM319.458 165.693L279.198 205.953L274.167 260.573L344.255 190.49L319.458 165.693Z" fill="white"/>
</svg>
