<svg xmlns="http://www.w3.org/2000/svg" version="1.1" viewBox="280 247 190 190">
  <g>
    <path d="M 377 247 C 380.531 248.664 382.819 250.577 385.585 253.358 C 386.936 254.709 386.936 254.709 388.314 256.088 C 389.288 257.071 390.261 258.055 391.234 259.039 C 392.237 260.046 393.24 261.052 394.244 262.057 C 396.879 264.7 399.507 267.348 402.135 269.998 C 404.819 272.703 407.51 275.402 410.199 278.102 C 415.472 283.396 420.738 288.696 426 294 C 425.39 294.302 424.781 294.605 424.152 294.917 C 417.606 298.212 412.969 302.658 407.815 307.814 C 406.382 309.243 404.934 310.655 403.484 312.066 C 402.569 312.978 401.654 313.889 400.711 314.828 C 399.879 315.652 399.046 316.476 398.189 317.325 C 392.313 324.505 392.523 331.435 392.238 340.402 C 389.762 391.31 389.762 391.31 376.54 403.504 C 365.444 413.057 365.444 413.057 360.945 412.952 C 358.262 411.639 356.543 409.878 354.453 407.746 C 353.609 406.892 352.764 406.038 351.895 405.158 C 350.585 403.811 350.585 403.811 349.25 402.438 C 348.362 401.536 347.474 400.634 346.559 399.705 C 344.366 397.477 342.18 395.241 340 393 C 341.563 389.234 343.906 386.864 346.789 384.016 C 347.252 383.555 347.716 383.095 348.193 382.62 C 349.666 381.159 351.145 379.704 352.625 378.25 C 353.628 377.257 354.631 376.263 355.633 375.27 C 358.083 372.841 360.54 370.419 363 368 C 361.02 365.69 359.04 363.38 357 361 C 351.353 363.823 347.399 368.229 342.981 372.648 C 341.384 374.241 339.771 375.818 338.156 377.395 C 337.132 378.413 336.108 379.433 335.086 380.453 C 334.158 381.373 333.231 382.292 332.275 383.239 C 329.899 386.122 328.923 388.409 328 392 C 322.12 387.123 316.731 381.861 311.348 376.445 C 310.448 375.544 309.547 374.642 308.62 373.713 C 306.249 371.338 303.881 368.961 301.513 366.582 C 299.088 364.147 296.66 361.714 294.232 359.281 C 289.486 354.523 284.742 349.763 280 345 C 284.731 339.312 289.794 334.07 295.035 328.852 C 295.923 327.963 296.812 327.075 297.727 326.159 C 300.144 323.742 302.564 321.328 304.984 318.915 C 307.52 316.385 310.054 313.852 312.587 311.319 C 317.377 306.533 322.169 301.749 326.962 296.966 C 332.422 291.517 337.88 286.065 343.337 280.613 C 354.555 269.405 365.776 258.201 377 247 Z" style="stroke-width: 1; transform-box: fill-box; transform-origin: -0.65255% -1.66783%; fill: rgb(46, 51, 80);"/>
    <path d="M 424 307 C 429.404 309.566 433.1 313.692 437.313 317.875 C 438.161 318.691 439.01 319.507 439.885 320.348 C 441.081 321.533 441.081 321.533 442.301 322.742 C 443.035 323.463 443.769 324.183 444.525 324.925 C 446 327 446 327 446.006 328.979 C 444.634 331.735 442.821 333.461 440.598 335.59 C 439.708 336.457 438.817 337.324 437.9 338.217 C 436.012 340.027 434.124 341.837 432.236 343.646 C 431.345 344.515 430.454 345.383 429.535 346.277 C 428.714 347.064 427.893 347.85 427.047 348.66 C 422.372 354.005 422.829 359.077 422.871 365.828 C 422.476 386.932 421.308 403.609 405.85 419.167 C 399.191 425.474 392.271 431.411 385 437 C 383.883 436.05 382.767 435.098 381.652 434.146 C 381.031 433.616 380.409 433.086 379.769 432.541 C 377.606 430.656 375.573 428.671 373.563 426.625 C 372.883 425.937 372.204 425.248 371.504 424.539 C 370.759 423.777 370.759 423.777 370 423 C 375.436 416.418 381.455 410.556 387.631 404.672 C 388.406 403.914 389.182 403.156 389.98 402.375 C 390.681 401.702 391.381 401.029 392.102 400.336 C 397.815 393.304 397.526 386.002 397.867 377.273 C 398.022 374.52 398.197 371.768 398.371 369.016 C 398.64 364.716 398.884 360.422 399.017 356.116 C 399.522 340.685 400.679 328.064 412.269 316.856 C 416.028 313.372 419.919 310.098 424 307 Z" style="isolation: isolate; fill: rgb(46, 51, 80);"/>
    <path d="M 455 337 C 458.954 340.331 462.81 343.684 466.438 347.375 C 467.117 348.063 467.796 348.752 468.496 349.461 C 468.992 349.969 469.489 350.477 470 351 C 465.703 356.128 461.21 360.95 456.484 365.684 C 455.787 366.384 455.09 367.084 454.372 367.806 C 452.911 369.272 451.449 370.737 449.985 372.2 C 447.737 374.45 445.497 376.708 443.258 378.967 C 441.834 380.394 440.409 381.82 438.984 383.246 C 438.314 383.924 437.643 384.602 436.952 385.301 C 436.33 385.919 435.709 386.537 435.069 387.174 C 434.523 387.721 433.977 388.268 433.415 388.832 C 432 390 432 390 430 390 C 430.28 385.978 430.576 381.958 430.875 377.938 C 430.954 376.804 431.032 375.67 431.113 374.502 C 431.197 373.397 431.281 372.291 431.367 371.152 C 431.477 369.636 431.477 369.636 431.589 368.09 C 432.474 361.431 433.929 357.437 438.789 352.723 C 439.73 351.798 440.671 350.873 441.641 349.92 C 442.635 348.967 443.63 348.015 444.625 347.063 C 445.629 346.084 446.631 345.104 447.633 344.123 C 450.078 341.737 452.533 339.363 455 337 Z" style="isolation: isolate; fill: rgb(46, 51, 80);"/>
  </g>
</svg>