<?xml version="1.0" encoding="utf-8"?>
<svg xmlns="http://www.w3.org/2000/svg" viewBox="0 0 500 500">
  <defs>
    <clipPath id="clippath">
      <polygon class="st0" points="0 0 1920 0 1920 1226.8 1071.9 1226.8 960 1337.7 847.8 1226.8 0 1226.8 0 0" style="fill: none;"/>
    </clipPath>
  </defs>
  <g id="b">
    <g id="c" transform="matrix(1, 0, 0, 1, -215.975821, -65.926912)">
      <polygon class="st1" points="1076.9 0 956.485 2.414 843.1 0 0 0 0 1226.8 847.8 1226.8 973.03 1223.244 1071.9 1226.8 1920 1226.8 1920 0 1076.9 0" style="fill: rgb(21, 30, 51);"/>
    </g>
    <g id="c1" data-name="c" transform="matrix(1, 0, 0, 1, -215.975821, -65.926912)">
      <g class="st4" style="clip-path: url(&quot;#clippath&quot;);">
        <g>
          <g class="st3" style="opacity: 0.1;">
            <g>
              <path class="st2" d="M309.1-177.7l223.1-223.1-239.2-239.2L51.6-398.6-12.7,300.7c-4.4,46.3-22.4,85.3-54.1,117l-256,256,154.6,154.6L206.7,453.3,255-57.8c4.4-48.3,22.4-88.2,54.1-120h0Z" style="fill: rgb(255, 255, 255);"/>
              <path class="st2" d="M-817.7,313.4c-.3-30.4,11.6-57.7,35.5-81.5L-491.8-58.5l101.7,101.7-281.6,281.6,239.2,239.2L-151,282.4l.8.8L-85.9-398.6c4.4-48.3,22.4-88.2,54.1-120l231.9-231.9c23.9-23.9,51.1-35.7,81.6-35.5,7,0,13.7.9,20.3,2.2L-238.7-1324.4-1350.3-212.8-816.9,320.6c-.2-2.4-.8-4.7-.8-7.2h0Z" style="fill: rgb(255, 255, 255);"/>
              <polygon class="st2" points="641.9 -291.1 390.8 -40 359.5 300.6 796.6 -136.5 641.9 -291.1" style="fill: rgb(255, 255, 255);"/>
            </g>
          </g>
          <g class="st3" style="opacity: 0.1;">
            <g>
              <path class="st2" d="M2031.7,1006.6l223.1-223.1-239.2-239.2-241.4,241.4-64.4,699.2c-4.4,46.3-22.4,85.3-54.1,117l-256,256,154.6,154.6,375-375,48.2-511.1c4.4-48.3,22.4-88.2,54.1-120h0Z" style="fill: rgb(255, 255, 255);"/>
              <path class="st2" d="M 904.9 1498.8 C 904.6 1468.4 951.652 1121.22 975.552 1097.42 L 1230.8 1126.9 L 1332.5 1228.6 L 1050.9 1510.2 L 1290.1 1749.4 L 1571.7 1467.8 L 1572.5 1468.6 L 1636.8 786.8 C 1641.2 738.5 1659.2 698.6 1690.9 666.8 L 1922.8 434.9 C 1946.7 411 1973.9 399.2 2004.4 399.4 C 2011.4 399.4 2018.1 400.3 2024.7 401.6 L 1483.9 -139.1 L 372.3 972.5 L 905.7 1505.9 C 905.5 1503.5 904.9 1501.2 904.9 1498.7 L 904.9 1498.8 Z" style="fill: rgb(255, 255, 255);"/>
              <polygon class="st2" points="2364.5 893.2 2113.4 1144.3 2082.1 1484.9 2519.2 1047.9 2364.5 893.2" style="fill: rgb(255, 255, 255);"/>
            </g>
          </g>
        </g>
      </g>
    </g>
  </g>
</svg>