<?xml version="1.0" encoding="UTF-8"?>
<svg id="b" xmlns="http://www.w3.org/2000/svg" xmlns:xlink="http://www.w3.org/1999/xlink" version="1.1" viewBox="0 0 1920 1337.7">
  <!-- Generator: Adobe Illustrator 30.2.0, SVG Export Plug-In . SVG Version: 2.1.1 Build 105)  -->
  <defs>
    <style>
      .st0 {
        fill: none;
      }

      .st1 {
        fill: #151e33;
      }

      .st2 {
        fill: #fff;
      }

      .st3 {
        opacity: .1;
      }

      .st4 {
        clip-path: url(#clippath);
      }
    </style>
    <clipPath id="clippath">
      <polygon class="st0" points="0 0 1920 0 1920 1226.8 1071.9 1226.8 960 1337.7 847.8 1226.8 0 1226.8 0 0"/>
    </clipPath>
  </defs>
  <g id="c">
    <polygon class="st1" points="1076.9 0 960 116.9 843.1 0 0 0 0 1226.8 847.8 1226.8 960 1337.7 1071.9 1226.8 1920 1226.8 1920 0 1076.9 0"/>
  </g>
  <g id="c1" data-name="c">
    <g class="st4">
      <g>
        <g class="st3">
          <g>
            <path class="st2" d="M309.1-177.7l223.1-223.1-239.2-239.2L51.6-398.6-12.7,300.7c-4.4,46.3-22.4,85.3-54.1,117l-256,256,154.6,154.6L206.7,453.3,255-57.8c4.4-48.3,22.4-88.2,54.1-120h0Z"/>
            <path class="st2" d="M-817.7,313.4c-.3-30.4,11.6-57.7,35.5-81.5L-491.8-58.5l101.7,101.7-281.6,281.6,239.2,239.2L-151,282.4l.8.8L-85.9-398.6c4.4-48.3,22.4-88.2,54.1-120l231.9-231.9c23.9-23.9,51.1-35.7,81.6-35.5,7,0,13.7.9,20.3,2.2L-238.7-1324.4-1350.3-212.8-816.9,320.6c-.2-2.4-.8-4.7-.8-7.2h0Z"/>
            <polygon class="st2" points="641.9 -291.1 390.8 -40 359.5 300.6 796.6 -136.5 641.9 -291.1"/>
          </g>
        </g>
        <g class="st3">
          <g>
            <path class="st2" d="M2031.7,1006.6l223.1-223.1-239.2-239.2-241.4,241.4-64.4,699.2c-4.4,46.3-22.4,85.3-54.1,117l-256,256,154.6,154.6,375-375,48.2-511.1c4.4-48.3,22.4-88.2,54.1-120h0Z"/>
            <path class="st2" d="M904.9,1497.8c-.3-30.4,11.6-57.7,35.5-81.5l290.4-290.4,101.7,101.7-281.6,281.6,239.2,239.2,281.6-281.6.8.8,64.3-681.8c4.4-48.3,22.4-88.2,54.1-120l231.9-231.9c23.9-23.9,51.1-35.7,81.6-35.5,7,0,13.7.9,20.3,2.2L1483.9-140.1,372.3,971.5l533.4,533.4c-.2-2.4-.8-4.7-.8-7.2h0Z"/>
            <polygon class="st2" points="2364.5 893.2 2113.4 1144.3 2082.1 1484.9 2519.2 1047.9 2364.5 893.2"/>
          </g>
        </g>
      </g>
    </g>
  </g>
</svg>