<?xml version="1.0" encoding="UTF-8"?>
<svg id="b" xmlns="http://www.w3.org/2000/svg" xmlns:xlink="http://www.w3.org/1999/xlink" version="1.1" viewBox="0 0 1920 651.8">
  <!-- Generator: Adobe Illustrator 30.2.0, SVG Export Plug-In . SVG Version: 2.1.1 Build 105)  -->
  <defs>
    <style>
      .st0 {
        fill: none;
      }

      .st1 {
        fill: #fff;
      }

      .st2 {
        opacity: .1;
      }

      .st3 {
        fill: #2d3350;
      }

      .st4 {
        clip-path: url(#clippath);
      }
    </style>
    <clipPath id="clippath">
      <polygon class="st0" points="0 0 843.1 0 960 116.9 1076.9 0 1920 0 1920 651.8 0 651.8 0 0"/>
    </clipPath>
  </defs>
  <g id="c">
    <polygon class="st3" points="1076.9 0 960 116.9 843.1 0 0 0 0 651.8 1920 651.8 1920 0 1076.9 0"/>
  </g>
  <g id="c1" data-name="c">
    <g class="st4">
      <g class="st2">
        <g>
          <path class="st1" d="M2031.7-224.8l223.1-223.1-239.2-239.2-241.4,241.4-64.4,699.2c-4.4,46.3-22.4,85.3-54.1,117l-256,256,154.6,154.6,375-375,48.2-511.1c4.4-48.3,22.4-88.2,54.1-120h0Z"/>
          <path class="st1" d="M904.9,266.3c-.3-30.4,11.6-57.7,35.5-81.5l290.4-290.4L1332.5-3.9l-281.6,281.6,239.2,239.2,281.6-281.6.8.8,64.3-681.8c4.4-48.3,22.4-88.2,54.1-120l231.9-231.9c23.9-23.9,51.1-35.7,81.6-35.5,7,0,13.7.9,20.3,2.2l-540.7-540.7L372.3-259.9,905.7,273.5c-.2-2.4-.8-4.7-.8-7.2h0Z"/>
          <polygon class="st1" points="2364.5 -338.2 2113.4 -87.1 2082.1 253.5 2519.2 -183.6 2364.5 -338.2"/>
        </g>
      </g>
    </g>
  </g>
</svg>