<?xml version="1.0" encoding="UTF-8"?>
<svg id="b" xmlns="http://www.w3.org/2000/svg" xmlns:xlink="http://www.w3.org/1999/xlink" version="1.1" viewBox="0 0 1920 2500.3">
  <!-- Generator: Adobe Illustrator 30.2.0, SVG Export Plug-In . SVG Version: 2.1.1 Build 105)  -->
  <defs>
    <style>
      .st0 {
        fill: none;
      }

      .st1, .st2 {
        opacity: .1;
      }

      .st3 {
        fill: #666f9d;
      }

      .st2 {
        fill: #f8b178;
        isolation: isolate;
      }

      .st4 {
        clip-path: url(#clippath);
      }
    </style>
    <clipPath id="clippath">
      <rect class="st0" width="1920" height="2383.3"/>
    </clipPath>
  </defs>
  <g id="c">
    <polygon class="st2" points="1920 2383.4 1076.9 2383.4 960 2500.3 843.1 2383.4 0 2383.4 0 0 1920 0 1920 2383.4"/>
  </g>
  <g id="c1" data-name="c">
    <g class="st4">
      <g>
        <g class="st1">
          <g>
            <path class="st3" d="M2013.1,137.1l223.1-223.1-239.2-239.2-241.4,241.4-64.4,699.2c-4.4,46.3-22.4,85.3-54.1,117l-256,256,154.6,154.6,375-375,48.2-511.1c4.4-48.3,22.4-88.2,54.1-120h0Z"/>
            <path class="st3" d="M886.3,628.2c-.3-30.4,11.6-57.7,35.5-81.5l290.4-290.4,101.7,101.7-281.6,281.6,239.2,239.2,281.6-281.6.8.8,64.3-681.8c4.4-48.3,22.4-88.2,54.1-120l231.9-231.9c23.9-23.9,51.1-35.7,81.6-35.5,7,0,13.7.9,20.3,2.2l-540.7-540.7L353.7,102l533.4,533.4c-.2-2.4-.8-4.7-.8-7.2h0Z"/>
            <polygon class="st3" points="2345.9 23.7 2094.9 274.8 2063.5 615.4 2500.6 178.3 2345.9 23.7"/>
          </g>
        </g>
        <g class="st1">
          <g>
            <path class="st3" d="M309.1,2185.8l223.1-223.1-239.2-239.2-241.4,241.4L-12.7,2664.2c-4.4,46.3-22.4,85.3-54.1,117l-256,256,154.6,154.6,375-375,48.2-511.1c4.4-48.3,22.4-88.2,54.1-120h0Z"/>
            <path class="st3" d="M-817.7,2677c-.3-30.4,11.6-57.7,35.5-81.5l290.4-290.4,101.7,101.7-281.6,281.6,239.2,239.2,281.6-281.6.8.8,64.3-681.8c4.4-48.3,22.4-88.2,54.1-120l231.9-231.9c23.9-23.9,51.1-35.7,81.6-35.5,7,0,13.7.9,20.3,2.2L-238.7,1039.2l-1111.6,1111.6,533.4,533.4c-.2-2.4-.8-4.7-.8-7.2h0Z"/>
            <polygon class="st3" points="641.9 2072.5 390.8 2323.6 359.5 2664.2 796.6 2227.1 641.9 2072.5"/>
          </g>
        </g>
      </g>
    </g>
  </g>
</svg>