<?xml version="1.0" encoding="UTF-8"?>
<svg id="Layer_1" xmlns="http://www.w3.org/2000/svg" xmlns:xlink="http://www.w3.org/1999/xlink" version="1.1" viewBox="0 0 1920 1080">
  <!-- Generator: Adobe Illustrator 30.2.0, SVG Export Plug-In . SVG Version: 2.1.1 Build 105)  -->
  <defs>
    <style>
      .st0 {
        fill: none;
      }

      .st1 {
        mix-blend-mode: multiply;
        opacity: .1;
      }

      .st2 {
        isolation: isolate;
      }

      .st3 {
        fill: #fff;
      }

      .st4 {
        clip-path: url(#clippath);
      }
    </style>
    <clipPath id="clippath">
      <rect class="st0" width="1920" height="1080"/>
    </clipPath>
  </defs>
  <g class="st2">
    <g id="b">
      <g id="c">
        <g>
          <g class="st4">
            <g>
              <image class="st2" width="7360" height="4911" transform="translate(0 -107.7) scale(.3)" xlink:href="Asset 6-1.png"/>
              <g class="st1">
                <image class="st2" width="1659" height="1706" transform="translate(780.5 -275.3)" xlink:href="Asset 6-2.png"/>
              </g>
            </g>
          </g>
          <g>
            <g>
              <path class="st3" d="M1342.4,714.3l-3.3,11.2c-.4,1.1-1,3-1.7,5.6v10.7h-2.4v-10.7c-.2-.9-.4-1.8-.8-2.8-.6-1.7-.9-2.6-.9-2.8l-3.3-11.2v-.2h2.5l3.8,13.8,3.8-13.8h2.5v.2h-.2Z"/>
              <path class="st3" d="M1360.4,739.8c0,.6-.2,1-.6,1.4s-.8.5-1.4.5h-7.7c-.6,0-1.1-.2-1.4-.5-.4-.4-.6-.8-.6-1.4v-23.7c0-.6.2-1,.6-1.4s.8-.5,1.4-.5h7.7c.6,0,1.1.2,1.4.5s.6.8.6,1.4v23.7ZM1358,739.6v-23.2h-6.8v23.2h6.8Z"/>
              <path class="st3" d="M1379.6,739.8c0,.6-.2,1-.6,1.4s-.8.5-1.4.5h-7.5c-.6,0-1.1-.2-1.4-.5-.4-.4-.6-.8-.6-1.4v-25.6h2.4v25.4h6.5v-25.4h2.4v25.6h.2Z"/>
              <path class="st3" d="M1399,741.7h-2.6l-5.1-14.8.3-.5h4.4v-10.2h-6.3v25.4h-2.4v-27.6h9.2c.6,0,1.1.2,1.4.5s.6.8.6,1.4v10.5c0,1.3-.9,2-2.7,2s-.4,0-.8,0h-.7c1.6,4.4,3.2,8.8,4.7,13.2h0Z"/>
              <path class="st3" d="M1427.2,739.8c0,.6-.2,1-.5,1.4s-.8.5-1.4.5h-6.9c-.6,0-1.1-.2-1.4-.5s-.6-.8-.6-1.4v-7h2.4v6.8h6v-6.6l-7.6-9.2c-.5-.6-.8-1.3-.8-2.1v-5.6c0-.6.2-1,.6-1.4s.8-.5,1.4-.5h6.9c.6,0,1,.2,1.4.5s.5.8.5,1.4v6.4h-2.4v-6.2h-6v5.8l7.7,9.2c.5.6.8,1.3.8,2.1v6.4h0Z"/>
              <path class="st3" d="M1445.9,741.7h-2.4l-1-6.1h-5.5l-1,6.1h-2.4l4.9-27.7h2.4l4.9,27.7h0ZM1442.2,733.4l-2.4-14.9-2.4,14.9h4.8Z"/>
              <path class="st3" d="M1461.4,716.3h-6.4v10.5h5.9v2.2h-5.9v12.7h-2.4v-27.6h8.9v2.2h0Z"/>
              <path class="st3" d="M1477.2,741.7h-9.1v-27.6h8.9v2.2h-6.5v10.3h5.9v2.2h-5.9v10.8h6.6v2.2h0Z"/>
              <path class="st3" d="M1493.8,716.3h-4.3v25.4h-2.4v-25.4h-4.3v-2.2h11v2.2h0Z"/>
              <path class="st3" d="M1511.1,714.3l-3.3,11.2c-.4,1.1-1,3-1.7,5.6v10.7h-2.4v-10.7c-.2-.9-.4-1.8-.8-2.8-.6-1.7-.9-2.6-.9-2.8l-3.3-11.2v-.2h2.5l3.8,13.8,3.8-13.8h2.5v.2h-.2Z"/>
              <path class="st3" d="M1534.6,732.3h-7.3v-2.2h7.3v2.2Z"/>
              <path class="st3" d="M1563.8,739.8c0,.6-.2,1-.6,1.4s-.8.5-1.4.5h-7.7c-.6,0-1.1-.2-1.4-.5-.4-.4-.6-.8-.6-1.4v-23.7c0-.6.2-1,.6-1.4s.8-.5,1.4-.5h7.7c.6,0,1.1.2,1.4.5s.6.8.6,1.4v23.7ZM1561.4,739.6v-23.2h-6.8v23.2h6.8Z"/>
              <path class="st3" d="M1583,739.8c0,.6-.2,1-.6,1.4s-.8.5-1.4.5h-7.5c-.6,0-1.1-.2-1.4-.5-.4-.4-.6-.8-.6-1.4v-25.6h2.4v25.4h6.5v-25.4h2.4v25.6h.2Z"/>
              <path class="st3" d="M1602.4,741.7h-2.6l-5.1-14.8.3-.5h4.4v-10.2h-6.3v25.4h-2.4v-27.6h9.2c.6,0,1.1.2,1.4.5s.6.8.6,1.4v10.5c0,1.3-.9,2-2.7,2s-.4,0-.8,0h-.7c1.6,4.4,3.2,8.8,4.7,13.2h0Z"/>
              <path class="st3" d="M1630.7,728.8c0,.6-.2,1-.6,1.4s-.8.6-1.4.6h-6.5v10.9h-2.4v-27.6h8.9c.6,0,1.1.2,1.4.5s.6.8.6,1.4v12.7h0ZM1628.3,728.6v-12.3h-6v12.3h6Z"/>
              <path class="st3" d="M1649.7,741.7h-2.6l-5.1-14.8.3-.5h4.4v-10.2h-6.3v25.4h-2.4v-27.6h9.2c.6,0,1.1.2,1.4.5s.6.8.6,1.4v10.5c0,1.3-.9,2-2.7,2s-.4,0-.8,0h-.7c1.6,4.4,3.2,8.8,4.7,13.2h0Z"/>
              <path class="st3" d="M1659.2,741.7h-2.4v-27.6h2.4v27.6Z"/>
              <path class="st3" d="M1678.8,739.8c0,.6-.2,1-.6,1.4s-.8.5-1.4.5h-7.7c-.6,0-1.1-.2-1.4-.5-.4-.4-.6-.8-.6-1.4v-23.7c0-.6.2-1,.6-1.4s.8-.5,1.4-.5h7.7c.6,0,1.1.2,1.4.5s.6.8.6,1.4v23.7ZM1676.4,739.6v-23.2h-6.8v23.2h6.8Z"/>
              <path class="st3" d="M1698.3,741.7h-2.6l-5.1-14.8.3-.5h4.4v-10.2h-6.3v25.4h-2.4v-27.6h9.2c.6,0,1.1.2,1.4.5s.6.8.6,1.4v10.5c0,1.3-.9,2-2.7,2s-.4,0-.8,0h-.7c1.6,4.4,3.2,8.8,4.7,13.2h0Z"/>
              <path class="st3" d="M1707.9,741.7h-2.4v-27.6h2.4v27.6Z"/>
              <path class="st3" d="M1725.3,716.3h-4.3v25.4h-2.4v-25.4h-4.3v-2.2h11v2.2h0Z"/>
              <path class="st3" d="M1742.5,714.3l-3.3,11.2c-.4,1.1-1,3-1.7,5.6v10.7h-2.4v-10.7c-.2-.9-.4-1.8-.8-2.8-.6-1.7-.9-2.6-.9-2.8l-3.3-11.2v-.2h2.5l3.8,13.8,3.8-13.8h2.5v.2h-.2Z"/>
            </g>
            <g>
              <path class="st3" d="M1354.9,692.4c0,1.2-.4,2.2-1.1,2.9-.7.8-1.7,1.1-2.9,1.1h-14.3c-1.2,0-2.2-.4-2.9-1.1-.8-.8-1.1-1.7-1.1-2.9v-14.4h5v13.9h12.2v-13.5l-15.6-18.9c-1.1-1.3-1.6-2.7-1.6-4.3v-11.5c0-1.2.4-2.2,1.1-2.9s1.7-1.1,2.9-1.1h14.3c1.2,0,2.1.4,2.9,1.1.7.8,1.1,1.7,1.1,2.9v13.2h-5v-12.8h-12.2v12l15.7,18.9c1,1.3,1.6,2.7,1.6,4.2v13.1h0Z"/>
              <path class="st3" d="M1382.4,696.5h-18.6v-56.7h18.4v4.5h-13.4v21.2h12.2v4.5h-12.2v22.1h13.6v4.5h0Z"/>
              <path class="st3" d="M1413,692.4c0,1.2-.4,2.2-1.2,2.9s-1.8,1.1-2.9,1.1h-14.6c-1.2,0-2.2-.4-2.9-1.1s-1.1-1.7-1.1-2.9v-48.6c0-1.2.4-2.2,1.1-2.9s1.7-1.1,2.9-1.1h14.6c1.2,0,2.2.4,2.9,1.1.8.8,1.2,1.7,1.2,2.9v13.2h-5.1v-12.8h-12.6v47.8h12.6v-13.9h5.1v14.4h0Z"/>
              <path class="st3" d="M1445.3,692.4c0,1.2-.4,2.2-1.1,2.9s-1.7,1.1-2.9,1.1h-15.4c-1.2,0-2.2-.4-2.9-1.1s-1.1-1.7-1.1-2.9v-52.7h5v52.2h13.4v-52.2h5v52.7h0Z"/>
              <path class="st3" d="M1478.4,696.5h-5.3l-10.5-30.4.7-1h9v-20.9h-12.9v52.2h-5v-56.7h19c1.2,0,2.2.4,2.9,1.1.8.8,1.1,1.7,1.1,2.9v21.5c0,2.7-1.8,4.1-5.5,4.1s-.9,0-1.6,0h-1.5c3.3,9,6.5,18.1,9.7,27.2h0Z"/>
              <path class="st3" d="M1504.6,696.5h-18.6v-56.7h18.4v4.5h-13.4v21.2h12.2v4.5h-12.2v22.1h13.6v4.5h0Z"/>
              <path class="st3" d="M1549.1,692.4c0,1.2-.4,2.2-1.1,2.9-.7.8-1.7,1.1-2.9,1.1h-14.3c-1.2,0-2.2-.4-2.9-1.1-.8-.8-1.1-1.7-1.1-2.9v-14.4h5v13.9h12.2v-13.5l-15.6-18.9c-1.1-1.3-1.6-2.7-1.6-4.3v-11.5c0-1.2.4-2.2,1.1-2.9s1.7-1.1,2.9-1.1h14.3c1.2,0,2.1.4,2.9,1.1.7.8,1.1,1.7,1.1,2.9v13.2h-5v-12.8h-12.2v12l15.7,18.9c1,1.3,1.6,2.7,1.6,4.2v13.1h0Z"/>
              <path class="st3" d="M1576.6,696.5h-18.6v-56.7h18.4v4.5h-13.4v21.2h12.2v4.5h-12.2v22.1h13.6v4.5h0Z"/>
              <path class="st3" d="M1608.5,696.5h-5.3l-10.5-30.4.7-1h9v-20.9h-12.9v52.2h-5v-56.7h19c1.2,0,2.2.4,2.9,1.1.8.8,1.1,1.7,1.1,2.9v21.5c0,2.7-1.8,4.1-5.5,4.1s-.9,0-1.6,0h-1.5c3.3,9,6.5,18.1,9.7,27.2h0Z"/>
              <path class="st3" d="M1638.2,639.8l-9.8,56.8h-4.7l-9.8-56.8h5l7,45.1.2,3.7c0-.8,0-2.1.3-3.7l7-45.1h4.8Z"/>
              <path class="st3" d="M1650.3,696.5h-5v-56.7h5v56.7Z"/>
              <path class="st3" d="M1682.5,692.4c0,1.2-.4,2.2-1.2,2.9s-1.8,1.1-2.9,1.1h-14.6c-1.2,0-2.2-.4-2.9-1.1s-1.1-1.7-1.1-2.9v-48.6c0-1.2.4-2.2,1.1-2.9s1.7-1.1,2.9-1.1h14.6c1.2,0,2.2.4,2.9,1.1.8.8,1.2,1.7,1.2,2.9v13.2h-5.1v-12.8h-12.6v47.8h12.6v-13.9h5.1v14.4h0Z"/>
              <path class="st3" d="M1709.9,696.5h-18.6v-56.7h18.4v4.5h-13.4v21.2h12.2v4.5h-12.2v22.1h13.6v4.5h0Z"/>
              <path class="st3" d="M1739.9,692.4c0,1.2-.4,2.2-1.1,2.9-.7.8-1.7,1.1-2.9,1.1h-14.3c-1.2,0-2.2-.4-2.9-1.1-.8-.8-1.1-1.7-1.1-2.9v-14.4h5v13.9h12.2v-13.5l-15.6-18.9c-1.1-1.3-1.6-2.7-1.6-4.3v-11.5c0-1.2.4-2.2,1.1-2.9s1.7-1.1,2.9-1.1h14.3c1.2,0,2.1.4,2.9,1.1.7.8,1.1,1.7,1.1,2.9v13.2h-5v-12.8h-12.2v12l15.7,18.9c1,1.3,1.6,2.7,1.6,4.2v13.1h0Z"/>
            </g>
            <g>
              <path class="st3" d="M1610.4,483.3l28.2-28.2-30.3-30.3-30.5,30.5-8.1,88.5c-.6,5.9-2.8,10.8-6.8,14.8l-32.4,32.4,19.6,19.6,47.4-47.4,6.1-64.7c.6-6.1,2.8-11.2,6.8-15.2h0Z"/>
              <path class="st3" d="M1467.8,545.5c0-3.8,1.5-7.3,4.5-10.3l36.7-36.7,12.9,12.9-35.6,35.6,30.3,30.3,35.6-35.6h0l8.1-86.2c.6-6.1,2.8-11.2,6.8-15.2l29.3-29.3c3-3,6.5-4.5,10.3-4.5s1.7.1,2.6.3l-68.4-68.4-140.7,140.7,67.5,67.5v-.9h0v-.2Z"/>
              <polygon class="st3" points="1652.5 469 1620.7 500.8 1616.8 543.9 1672.1 488.6 1652.5 469"/>
            </g>
          </g>
        </g>
      </g>
    </g>
  </g>
</svg>