<svg xmlns="http://www.w3.org/2000/svg" version="1.1" viewBox="232 247 286 280">
  <g>
    <path d="M 377 247 C 380.531 248.664 382.819 250.577 385.585 253.358 C 386.936 254.709 386.936 254.709 388.314 256.088 C 389.288 257.071 390.261 258.055 391.234 259.039 C 392.237 260.046 393.24 261.052 394.244 262.057 C 396.879 264.7 399.507 267.348 402.135 269.998 C 404.819 272.703 407.51 275.402 410.199 278.102 C 415.472 283.396 420.738 288.696 426 294 C 425.39 294.302 424.781 294.605 424.152 294.917 C 417.606 298.212 412.969 302.658 407.815 307.814 C 406.382 309.243 404.934 310.655 403.484 312.066 C 402.569 312.978 401.654 313.889 400.711 314.828 C 399.879 315.652 399.046 316.476 398.189 317.325 C 392.313 324.505 392.523 331.435 392.238 340.402 C 389.762 391.31 389.762 391.31 376.54 403.504 C 365.444 413.057 365.444 413.057 360.945 412.952 C 358.262 411.639 356.543 409.878 354.453 407.746 C 353.609 406.892 352.764 406.038 351.895 405.158 C 350.585 403.811 350.585 403.811 349.25 402.438 C 348.362 401.536 347.474 400.634 346.559 399.705 C 344.366 397.477 342.18 395.241 340 393 C 341.563 389.234 343.906 386.864 346.789 384.016 C 347.252 383.555 347.716 383.095 348.193 382.62 C 349.666 381.159 351.145 379.704 352.625 378.25 C 353.628 377.257 354.631 376.263 355.633 375.27 C 358.083 372.841 360.54 370.419 363 368 C 361.02 365.69 359.04 363.38 357 361 C 351.353 363.823 347.399 368.229 342.981 372.648 C 341.384 374.241 339.771 375.818 338.156 377.395 C 337.132 378.413 336.108 379.433 335.086 380.453 C 334.158 381.373 333.231 382.292 332.275 383.239 C 329.899 386.122 328.923 388.409 328 392 C 322.12 387.123 316.731 381.861 311.348 376.445 C 310.448 375.544 309.547 374.642 308.62 373.713 C 306.249 371.338 303.881 368.961 301.513 366.582 C 299.088 364.147 296.66 361.714 294.232 359.281 C 289.486 354.523 284.742 349.763 280 345 C 284.731 339.312 289.794 334.07 295.035 328.852 C 295.923 327.963 296.812 327.075 297.727 326.159 C 300.144 323.742 302.564 321.328 304.984 318.915 C 307.52 316.385 310.054 313.852 312.587 311.319 C 317.377 306.533 322.169 301.749 326.962 296.966 C 332.422 291.517 337.88 286.065 343.337 280.613 C 354.555 269.405 365.776 258.201 377 247 Z" style="fill: rgb(255, 255, 255); transform-box: fill-box; transform-origin: -0.65255% -1.66783%;"/>
    <path d="M 424 307 C 429.404 309.566 433.1 313.692 437.313 317.875 C 438.161 318.691 439.01 319.507 439.885 320.348 C 441.081 321.533 441.081 321.533 442.301 322.742 C 443.035 323.463 443.769 324.183 444.525 324.925 C 446 327 446 327 446.006 328.979 C 444.634 331.735 442.821 333.461 440.598 335.59 C 439.708 336.457 438.817 337.324 437.9 338.217 C 436.012 340.027 434.124 341.837 432.236 343.646 C 431.345 344.515 430.454 345.383 429.535 346.277 C 428.714 347.064 427.893 347.85 427.047 348.66 C 422.372 354.005 422.829 359.077 422.871 365.828 C 422.476 386.932 421.308 403.609 405.85 419.167 C 399.191 425.474 392.271 431.411 385 437 C 383.883 436.05 382.767 435.098 381.652 434.146 C 381.031 433.616 380.409 433.086 379.769 432.541 C 377.606 430.656 375.573 428.671 373.563 426.625 C 372.883 425.937 372.204 425.248 371.504 424.539 C 370.759 423.777 370.759 423.777 370 423 C 375.436 416.418 381.455 410.556 387.631 404.672 C 388.406 403.914 389.182 403.156 389.98 402.375 C 390.681 401.702 391.381 401.029 392.102 400.336 C 397.815 393.304 397.526 386.002 397.867 377.273 C 398.022 374.52 398.197 371.768 398.371 369.016 C 398.64 364.716 398.884 360.422 399.017 356.116 C 399.522 340.685 400.679 328.064 412.269 316.856 C 416.028 313.372 419.919 310.098 424 307 Z" style="isolation: isolate; fill: rgb(255, 255, 255);"/>
    <path d="M 455 337 C 458.954 340.331 462.81 343.684 466.438 347.375 C 467.117 348.063 467.796 348.752 468.496 349.461 C 468.992 349.969 469.489 350.477 470 351 C 465.703 356.128 461.21 360.95 456.484 365.684 C 455.787 366.384 455.09 367.084 454.372 367.806 C 452.911 369.272 451.449 370.737 449.985 372.2 C 447.737 374.45 445.497 376.708 443.258 378.967 C 441.834 380.394 440.409 381.82 438.984 383.246 C 438.314 383.924 437.643 384.602 436.952 385.301 C 436.33 385.919 435.709 386.537 435.069 387.174 C 434.523 387.721 433.977 388.268 433.415 388.832 C 432 390 432 390 430 390 C 430.28 385.978 430.576 381.958 430.875 377.938 C 430.954 376.804 431.032 375.67 431.113 374.502 C 431.197 373.397 431.281 372.291 431.367 371.152 C 431.477 369.636 431.477 369.636 431.589 368.09 C 432.474 361.431 433.929 357.437 438.789 352.723 C 439.73 351.798 440.671 350.873 441.641 349.92 C 442.635 348.967 443.63 348.015 444.625 347.063 C 445.629 346.084 446.631 345.104 447.633 344.123 C 450.078 341.737 452.533 339.363 455 337 Z" style="isolation: isolate; fill: rgb(255, 255, 255);"/>
    <path d="M 296 457 C 297.32 457 298.64 457 300 457 C 300 468.88 300 480.76 300 493 C 302.64 493 305.28 493 308 493 C 308 481.12 308 469.24 308 457 C 309.65 457 311.3 457 313 457 C 313.025 462.393 313.043 467.787 313.055 473.18 C 313.06 475.017 313.067 476.853 313.075 478.689 C 313.088 481.323 313.093 483.956 313.098 486.59 C 313.103 487.416 313.108 488.242 313.113 489.093 C 313.114 491.062 313.062 493.032 313 495 C 312.67 495.33 312.34 495.66 312 496 C 306.72 496 301.44 496 296 496 C 296 483.13 296 470.26 296 457 Z" style="isolation: isolate; fill: rgb(255, 255, 255);"/>
    <path d="M 408 457 C 413.28 457 418.56 457 424 457 C 424 463.27 424 469.54 424 476 C 422.35 476.33 420.7 476.66 419 477 C 419.433 478.204 419.866 479.408 420.313 480.648 C 420.875 482.224 421.438 483.799 422 485.375 C 422.286 486.169 422.572 486.963 422.867 487.781 C 423.138 488.542 423.409 489.302 423.688 490.086 C 423.939 490.788 424.19 491.489 424.449 492.212 C 425 494 425 494 425 496 C 423.35 496 421.7 496 420 496 C 417.69 488.74 415.38 481.48 413 474 C 415.31 474 417.62 474 420 474 C 420 469.38 420 464.76 420 460 C 417.36 460 414.72 460 412 460 C 412 471.88 412 483.76 412 496 C 410.68 496 409.36 496 408 496 C 408 483.13 408 470.26 408 457 Z" style="isolation: isolate; fill: rgb(255, 255, 255);"/>
    <path d="M 318 457 C 323.28 457 328.56 457 334 457 C 334 463.27 334 469.54 334 476 C 332.35 476.33 330.7 476.66 329 477 C 329.433 478.204 329.866 479.408 330.313 480.648 C 330.875 482.224 331.438 483.799 332 485.375 C 332.286 486.169 332.572 486.963 332.867 487.781 C 333.138 488.542 333.409 489.302 333.688 490.086 C 333.939 490.788 334.19 491.489 334.449 492.212 C 335 494 335 494 335 496 C 333.35 496 331.7 496 330 496 C 327.69 488.74 325.38 481.48 323 474 C 325.31 474 327.62 474 330 474 C 330 469.38 330 464.76 330 460 C 327.36 460 324.72 460 322 460 C 322 471.88 322 483.76 322 496 C 320.68 496 319.36 496 318 496 C 318 483.13 318 470.26 318 457 Z" style="isolation: isolate; fill: rgb(255, 255, 255);"/>
    <path d="M 501 457 C 503.479 456.973 505.958 456.953 508.438 456.938 C 509.145 456.929 509.852 456.921 510.58 456.912 C 512.387 456.903 514.194 456.948 516 457 C 517 458 517 458 517.098 460.504 C 517.086 461.513 517.074 462.523 517.063 463.563 C 517.053 464.574 517.044 465.586 517.035 466.629 C 517.024 467.411 517.012 468.194 517 469 C 515.35 469 513.7 469 512 469 C 512 466.03 512 463.06 512 460 C 509.69 460 507.38 460 505 460 C 504.73 465.312 505.051 467.855 508.516 472.035 C 509.526 473.112 510.542 474.183 511.563 475.25 C 515.851 479.797 517.772 482.714 517.75 489.25 C 517.307 494.693 517.307 494.693 516 496 C 513.47 496.073 510.967 496.092 508.438 496.063 C 507.371 496.056 507.371 496.056 506.283 496.049 C 504.522 496.037 502.761 496.019 501 496 C 501 492.04 501 488.08 501 484 C 502.32 484 503.64 484 505 484 C 505 486.97 505 489.94 505 493 C 507.31 493 509.62 493 512 493 C 512.386 487.871 512.005 484.246 508.707 480.156 C 507.791 479.181 506.867 478.212 505.938 477.25 C 501.696 472.799 500.318 469.511 500.375 463.25 C 500.533 461.162 500.724 459.075 501 457 Z" style="isolation: isolate; fill: rgb(255, 255, 255);"/>
    <path d="M 368 457 C 370.479 456.973 372.958 456.953 375.438 456.938 C 376.145 456.929 376.852 456.921 377.58 456.912 C 379.387 456.903 381.194 456.948 383 457 C 384 458 384 458 384.098 460.504 C 384.086 461.513 384.074 462.523 384.063 463.563 C 384.053 464.574 384.044 465.586 384.035 466.629 C 384.024 467.411 384.012 468.194 384 469 C 382.35 469 380.7 469 379 469 C 379 466.03 379 463.06 379 460 C 376.69 460 374.38 460 372 460 C 371.73 465.312 372.051 467.855 375.516 472.035 C 376.526 473.112 377.542 474.183 378.563 475.25 C 382.851 479.797 384.772 482.714 384.75 489.25 C 384.307 494.693 384.307 494.693 383 496 C 380.47 496.073 377.967 496.092 375.438 496.063 C 374.371 496.056 374.371 496.056 373.283 496.049 C 371.522 496.037 369.761 496.019 368 496 C 368 492.04 368 488.08 368 484 C 369.32 484 370.64 484 372 484 C 372 486.97 372 489.94 372 493 C 374.31 493 376.62 493 379 493 C 379.386 487.871 379.005 484.246 375.707 480.156 C 374.791 479.181 373.867 478.212 372.938 477.25 C 368.696 472.799 367.318 469.511 367.375 463.25 C 367.533 461.162 367.724 459.075 368 457 Z" style="isolation: isolate; fill: rgb(255, 255, 255);"/>
    <path d="M 234 457 C 236.479 456.973 238.958 456.953 241.438 456.938 C 242.145 456.929 242.852 456.921 243.58 456.912 C 245.387 456.903 247.194 456.948 249 457 C 250 458 250 458 250.098 460.504 C 250.086 461.513 250.074 462.523 250.063 463.563 C 250.053 464.574 250.044 465.586 250.035 466.629 C 250.024 467.411 250.012 468.194 250 469 C 248.35 469 246.7 469 245 469 C 245 466.03 245 463.06 245 460 C 242.69 460 240.38 460 238 460 C 237.73 465.312 238.051 467.855 241.516 472.035 C 242.526 473.112 243.542 474.183 244.563 475.25 C 248.851 479.797 250.772 482.714 250.75 489.25 C 250.307 494.693 250.307 494.693 249 496 C 246.47 496.073 243.967 496.092 241.438 496.063 C 240.371 496.056 240.371 496.056 239.283 496.049 C 237.522 496.037 235.761 496.019 234 496 C 234 492.04 234 488.08 234 484 C 235.32 484 236.64 484 238 484 C 238 486.97 238 489.94 238 493 C 240.31 493 242.62 493 245 493 C 245.386 487.871 245.005 484.246 241.707 480.156 C 240.791 479.181 239.867 478.212 238.938 477.25 C 234.696 472.799 233.318 469.511 233.375 463.25 C 233.533 461.162 233.724 459.075 234 457 Z" style="isolation: isolate; fill: rgb(255, 255, 255);"/>
    <path d="M 428 457 C 429.65 457 431.3 457 433 457 C 433.506 460.041 434.005 463.082 434.5 466.125 C 434.643 466.981 434.786 467.837 434.934 468.719 C 435.657 473.197 436.179 477.446 436 482 C 436.66 482 437.32 482 438 482 C 438.073 480.927 438.073 480.927 438.148 479.832 C 438.725 472.149 439.738 464.599 441 457 C 442.65 457 444.3 457 446 457 C 445.167 462.073 444.331 467.145 443.491 472.216 C 443.206 473.942 442.922 475.667 442.639 477.393 C 442.232 479.873 441.821 482.353 441.41 484.832 C 441.284 485.604 441.158 486.376 441.028 487.171 C 440.522 490.212 439.977 493.07 439 496 C 437.68 496 436.36 496 435 496 C 432.894 487.686 431.285 479.321 429.813 470.875 C 429.634 469.855 429.455 468.836 429.271 467.785 C 428 460.385 428 460.385 428 457 Z" style="isolation: isolate; fill: rgb(255, 255, 255);"/>
    <path d="M 460 457 C 464.95 457 469.9 457 475 457 C 476 458 476 458 476.098 460.504 C 476.086 461.513 476.074 462.523 476.063 463.563 C 476.053 464.574 476.044 465.586 476.035 466.629 C 476.024 467.411 476.012 468.194 476 469 C 474.68 469 473.36 469 472 469 C 472 466.03 472 463.06 472 460 C 469.36 460 466.72 460 464 460 C 464 470.89 464 481.78 464 493 C 466.64 493 469.28 493 472 493 C 472 490.03 472 487.06 472 484 C 473.32 484 474.64 484 476 484 C 476.027 485.812 476.046 487.625 476.063 489.438 C 476.074 490.447 476.086 491.456 476.098 492.496 C 476 495 476 495 475 496 C 470.05 496 465.1 496 460 496 C 460 483.13 460 470.26 460 457 Z" style="isolation: isolate; fill: rgb(255, 255, 255);"/>
    <path d="M 274 457 C 278.95 457 283.9 457 289 457 C 290 458 290 458 290.098 460.504 C 290.086 461.513 290.074 462.523 290.063 463.563 C 290.053 464.574 290.044 465.586 290.035 466.629 C 290.024 467.411 290.012 468.194 290 469 C 288.68 469 287.36 469 286 469 C 286 466.03 286 463.06 286 460 C 283.36 460 280.72 460 278 460 C 278 470.89 278 481.78 278 493 C 280.64 493 283.28 493 286 493 C 286 490.03 286 487.06 286 484 C 287.32 484 288.64 484 290 484 C 290.027 485.812 290.046 487.625 290.063 489.438 C 290.074 490.447 290.086 491.456 290.098 492.496 C 290 495 290 495 289 496 C 284.05 496 279.1 496 274 496 C 274 483.13 274 470.26 274 457 Z" style="isolation: isolate; fill: rgb(255, 255, 255);"/>
    <path d="M 482 457 C 486.29 457 490.58 457 495 457 C 495 457.99 495 458.98 495 460 C 492.03 460 489.06 460 486 460 C 486 464.62 486 469.24 486 474 C 488.64 474 491.28 474 494 474 C 494 474.99 494 475.98 494 477 C 491.36 477 488.72 477 486 477 C 486 482.28 486 487.56 486 493 C 488.97 493 491.94 493 495 493 C 495 493.99 495 494.98 495 496 C 490.71 496 486.42 496 482 496 C 482 483.13 482 470.26 482 457 Z" style="isolation: isolate; fill: rgb(255, 255, 255);"/>
    <path d="M 390 457 C 394.29 457 398.58 457 403 457 C 403 457.99 403 458.98 403 460 C 400.03 460 397.06 460 394 460 C 394 464.62 394 469.24 394 474 C 396.64 474 399.28 474 402 474 C 402 474.99 402 475.98 402 477 C 399.36 477 396.72 477 394 477 C 394 482.28 394 487.56 394 493 C 396.97 493 399.94 493 403 493 C 403 493.99 403 494.98 403 496 C 398.71 496 394.42 496 390 496 C 390 483.13 390 470.26 390 457 Z" style="isolation: isolate; fill: rgb(255, 255, 255);"/>
    <path d="M 340 457 C 344.29 457 348.58 457 353 457 C 353 457.99 353 458.98 353 460 C 350.03 460 347.06 460 344 460 C 344 464.62 344 469.24 344 474 C 346.64 474 349.28 474 352 474 C 352 474.99 352 475.98 352 477 C 349.36 477 346.72 477 344 477 C 344 482.28 344 487.56 344 493 C 346.97 493 349.94 493 353 493 C 353 493.99 353 494.98 353 496 C 348.71 496 344.42 496 340 496 C 340 483.13 340 470.26 340 457 Z" style="isolation: isolate; fill: rgb(255, 255, 255);"/>
    <path d="M 255 457 C 259.29 457 263.58 457 268 457 C 268 457.99 268 458.98 268 460 C 265.03 460 262.06 460 259 460 C 259 464.62 259 469.24 259 474 C 261.64 474 264.28 474 267 474 C 267 474.99 267 475.98 267 477 C 264.36 477 261.72 477 259 477 C 259 482.28 259 487.56 259 493 C 261.97 493 264.94 493 268 493 C 268 493.99 268 494.98 268 496 C 263.71 496 259.42 496 255 496 C 255 483.13 255 470.26 255 457 Z" style="isolation: isolate; fill: rgb(255, 255, 255);"/>
    <path d="M 450 457 C 451.32 457 452.64 457 454 457 C 454 469.87 454 482.74 454 496 C 452.68 496 451.36 496 450 496 C 450 483.13 450 470.26 450 457 Z" style="isolation: isolate; fill: rgb(255, 255, 255);"/>
    <path d="M 465 508 C 467.97 508 470.94 508 474 508 C 474 514.27 474 520.54 474 527 C 471.03 527 468.06 527 465 527 C 465 520.73 465 514.46 465 508 Z M 468 510 C 468 514.95 468 519.9 468 525 C 468.99 525 469.98 525 471 525 C 471 520.05 471 515.1 471 510 C 470.01 510 469.02 510 468 510 Z" style="isolation: isolate; fill: rgb(255, 255, 255);"/>
    <path d="M 478 508 C 480.97 508 483.94 508 487 508 C 487 511.3 487 514.6 487 518 C 486.34 518 485.68 518 485 518 C 485.66 520.97 486.32 523.94 487 527 C 486.01 526.67 485.02 526.34 484 526 C 482.813 522.938 482.813 522.938 482 520 C 481.67 522.31 481.34 524.62 481 527 C 480.01 527 479.02 527 478 527 C 478 520.73 478 514.46 478 508 Z M 481 510 C 481 511.98 481 513.96 481 516 C 481.99 516 482.98 516 484 516 C 484 514.02 484 512.04 484 510 C 483.01 510 482.02 510 481 510 Z" style="isolation: isolate; fill: rgb(255, 255, 255);"/>
    <path d="M 386 508 C 388.64 508 391.28 508 394 508 C 395.517 511.034 395.144 514.176 395.125 517.5 C 395.129 518.19 395.133 518.879 395.137 519.59 C 395.127 524.747 395.127 524.747 394 527 C 391.36 527 388.72 527 386 527 C 384.483 523.966 384.856 520.824 384.875 517.5 C 384.871 516.81 384.867 516.121 384.863 515.41 C 384.873 510.253 384.873 510.253 386 508 Z M 388 510 C 388 514.95 388 519.9 388 525 C 389.32 525 390.64 525 392 525 C 392 520.05 392 515.1 392 510 C 390.68 510 389.36 510 388 510 Z" style="isolation: isolate; fill: rgb(255, 255, 255);"/>
    <path d="M 271 508 C 273.97 508 276.94 508 280 508 C 280 511.3 280 514.6 280 518 C 279.34 518 278.68 518 278 518 C 278.66 520.97 279.32 523.94 280 527 C 279.01 526.67 278.02 526.34 277 526 C 275.813 522.938 275.813 522.938 275 520 C 274.67 522.31 274.34 524.62 274 527 C 273.01 527 272.02 527 271 527 C 271 520.73 271 514.46 271 508 Z M 274 510 C 274 511.98 274 513.96 274 516 C 274.99 516 275.98 516 277 516 C 277 514.02 277 512.04 277 510 C 276.01 510 275.02 510 274 510 Z" style="isolation: isolate; fill: rgb(255, 255, 255);"/>
    <path d="M 245 508 C 247.64 508 250.28 508 253 508 C 254.517 511.034 254.144 514.176 254.125 517.5 C 254.129 518.19 254.133 518.879 254.137 519.59 C 254.127 524.747 254.127 524.747 253 527 C 250.36 527 247.72 527 245 527 C 243.483 523.966 243.856 520.824 243.875 517.5 C 243.871 516.81 243.867 516.121 243.863 515.41 C 243.873 510.253 243.873 510.253 245 508 Z M 247 510 C 247 514.95 247 519.9 247 525 C 248.32 525 249.64 525 251 525 C 251 520.05 251 515.1 251 510 C 249.68 510 248.36 510 247 510 Z" style="isolation: isolate; fill: rgb(255, 255, 255);"/>
    <path d="M 445 508 C 447.64 508 450.28 508 453 508 C 454 509 454 509 454.098 510.848 C 454.049 513.924 454.049 513.924 454 517 C 453.01 517.33 452.02 517.66 451 518 C 451.99 520.97 452.98 523.94 454 527 C 453.01 527 452.02 527 451 527 C 450.34 525.02 449.68 523.04 449 521 C 448.67 522.98 448.34 524.96 448 527 C 447.01 527 446.02 527 445 527 C 445 520.73 445 514.46 445 508 Z M 448 510 C 448 511.98 448 513.96 448 516 C 448.99 516 449.98 516 451 516 C 451 514.02 451 512.04 451 510 C 450.01 510 449.02 510 448 510 Z" style="isolation: isolate; fill: rgb(255, 255, 255);"/>
    <path d="M 412 508 C 414.64 508 417.28 508 420 508 C 421 509 421 509 421.098 510.848 C 421.049 513.924 421.049 513.924 421 517 C 420.01 517.33 419.02 517.66 418 518 C 418.99 520.97 419.98 523.94 421 527 C 420.01 527 419.02 527 418 527 C 417.34 525.02 416.68 523.04 416 521 C 415.67 522.98 415.34 524.96 415 527 C 414.01 527 413.02 527 412 527 C 412 520.73 412 514.46 412 508 Z M 415 510 C 415 511.98 415 513.96 415 516 C 415.99 516 416.98 516 418 516 C 418 514.02 418 512.04 418 510 C 417.01 510 416.02 510 415 510 Z" style="isolation: isolate; fill: rgb(255, 255, 255);"/>
    <path d="M 399 508 C 399.99 508 400.98 508 402 508 C 402 513.61 402 519.22 402 525 C 402.99 525 403.98 525 405 525 C 405 519.39 405 513.78 405 508 C 405.99 508 406.98 508 408 508 C 408 514.27 408 520.54 408 527 C 405.03 527 402.06 527 399 527 C 399 520.73 399 514.46 399 508 Z" style="isolation: isolate; fill: rgb(255, 255, 255);"/>
    <path d="M 258 508 C 258.99 508 259.98 508 261 508 C 261 513.61 261 519.22 261 525 C 261.99 525 262.98 525 264 525 C 264 519.39 264 513.78 264 508 C 264.99 508 265.98 508 267 508 C 267 514.27 267 520.54 267 527 C 264.03 527 261.06 527 258 527 C 258 520.73 258 514.46 258 508 Z" style="isolation: isolate; fill: rgb(255, 255, 255);"/>
    <path d="M 292 508 C 294.64 508 297.28 508 300 508 C 300 509.98 300 511.96 300 514 C 299.01 514 298.02 514 297 514 C 297 512.68 297 511.36 297 510 C 296.01 510 295.02 510 294 510 C 295.001 513.002 295.685 514.731 298.125 516.813 C 300.967 520.128 300.285 522.727 300 527 C 297.36 527 294.72 527 292 527 C 291.67 525.02 291.34 523.04 291 521 C 291.99 521 292.98 521 294 521 C 294 522.32 294 523.64 294 525 C 294.99 525 295.98 525 297 525 C 296.028 521.518 295.217 519.248 292.813 516.5 C 291 514 291 514 291.25 510.688 C 291.498 509.801 291.745 508.914 292 508 Z" style="isolation: isolate; fill: rgb(255, 255, 255);"/>
    <path d="M 432 508 C 434.97 508 437.94 508 441 508 C 441 511.63 441 515.26 441 519 C 439.02 519 437.04 519 435 519 C 435 521.64 435 524.28 435 527 C 434.01 527 433.02 527 432 527 C 432 520.73 432 514.46 432 508 Z M 435 510 C 435 512.31 435 514.62 435 517 C 435.99 517 436.98 517 438 517 C 438 514.69 438 512.38 438 510 C 437.01 510 436.02 510 435 510 Z" style="isolation: isolate; fill: rgb(255, 255, 255);"/>
    <path d="M 307 508 C 307.99 508.33 308.98 508.66 310 509 C 310.99 514.94 311.98 520.88 313 527 C 312.01 527 311.02 527 310 527 C 309.67 526.34 309.34 525.68 309 525 C 308.01 524.67 307.02 524.34 306 524 C 306 524.99 306 525.98 306 527 C 305.01 527 304.02 527 303 527 C 303.474 524.02 303.954 521.041 304.438 518.063 C 304.572 517.212 304.707 516.362 304.846 515.486 C 304.978 514.677 305.11 513.869 305.246 513.035 C 305.367 512.286 305.487 511.537 305.611 510.766 C 306 509 306 509 307 508 Z M 307 518 C 307 519.32 307 520.64 307 522 C 307.66 522 308.32 522 309 522 C 309 520.68 309 519.36 309 518 C 308.34 518 307.68 518 307 518 Z" style="isolation: isolate; fill: rgb(255, 255, 255);"/>
    <path d="M 327 508 C 329.64 508 332.28 508 335 508 C 335 508.66 335 509.32 335 510 C 333.35 510 331.7 510 330 510 C 330 511.98 330 513.96 330 516 C 331.32 516 332.64 516 334 516 C 334 516.66 334 517.32 334 518 C 332.68 518 331.36 518 330 518 C 330 520.31 330 522.62 330 525 C 331.65 525 333.3 525 335 525 C 335 525.66 335 526.32 335 527 C 332.36 527 329.72 527 327 527 C 327 520.73 327 514.46 327 508 Z" style="isolation: isolate; fill: rgb(255, 255, 255);"/>
    <path d="M 509 508 C 509.99 508.33 510.98 508.66 512 509 C 512.688 511.063 512.688 511.063 513 513 C 513.66 511.35 514.32 509.7 515 508 C 515.99 508 516.98 508 518 508 C 517.691 509.279 517.381 510.558 517.063 511.875 C 515.939 516.888 515.406 521.885 515 527 C 514.01 527 513.02 527 512 527 C 510.93 520.676 509.867 514.356 509 508 Z" style="isolation: isolate; fill: rgb(255, 255, 255);"/>
    <path d="M 349 508 C 349.99 508.33 350.98 508.66 352 509 C 352.688 511.063 352.688 511.063 353 513 C 353.66 511.35 354.32 509.7 355 508 C 355.99 508 356.98 508 358 508 C 357.691 509.279 357.381 510.558 357.063 511.875 C 355.939 516.888 355.406 521.885 355 527 C 354.01 527 353.02 527 352 527 C 350.93 520.676 349.867 514.356 349 508 Z" style="isolation: isolate; fill: rgb(255, 255, 255);"/>
    <path d="M 232 508 C 232.99 508.33 233.98 508.66 235 509 C 235.688 511.063 235.688 511.063 236 513 C 236.66 511.35 237.32 509.7 238 508 C 238.99 508 239.98 508 241 508 C 240.691 509.279 240.381 510.558 240.063 511.875 C 238.939 516.888 238.406 521.885 238 527 C 237.01 527 236.02 527 235 527 C 233.93 520.676 232.867 514.356 232 508 Z" style="isolation: isolate; fill: rgb(255, 255, 255);"/>
    <path d="M 316 508 C 318.64 508 321.28 508 324 508 C 324 508.66 324 509.32 324 510 C 322.35 510 320.7 510 319 510 C 319 511.98 319 513.96 319 516 C 320.32 516 321.64 516 323 516 C 323 516.66 323 517.32 323 518 C 321.68 518 320.36 518 319 518 C 319 520.97 319 523.94 319 527 C 318.01 527 317.02 527 316 527 C 316 520.73 316 514.46 316 508 Z" style="isolation: isolate; fill: rgb(255, 255, 255);"/>
    <path d="M 498 508 C 500.97 508 503.94 508 507 508 C 507 508.66 507 509.32 507 510 C 506.01 510 505.02 510 504 510 C 504 515.61 504 521.22 504 527 C 503.01 527 502.02 527 501 527 C 501 521.39 501 515.78 501 510 C 500.01 510 499.02 510 498 510 C 498 509.34 498 508.68 498 508 Z" style="isolation: isolate; fill: rgb(255, 255, 255);"/>
    <path d="M 337 508 C 339.97 508 342.94 508 346 508 C 346 508.66 346 509.32 346 510 C 345.01 510 344.02 510 343 510 C 343 515.61 343 521.22 343 527 C 342.01 527 341.02 527 340 527 C 340 521.39 340 515.78 340 510 C 339.01 510 338.02 510 337 510 C 337 509.34 337 508.68 337 508 Z" style="isolation: isolate; fill: rgb(255, 255, 255);"/>
    <path d="M 458 508 C 458.99 508 459.98 508 461 508 C 461 514.27 461 520.54 461 527 C 460.01 527 459.02 527 458 527 C 458 520.73 458 514.46 458 508 Z" style="isolation: isolate; fill: rgb(255, 255, 255);"/>
    <path d="M 492 508 C 492.66 508 493.32 508 494 508 C 494 514.27 494 520.54 494 527 C 493.34 527 492.68 527 492 527 C 492 520.73 492 514.46 492 508 Z" style="isolation: isolate; fill: rgb(255, 255, 255);"/>
    <path d="M 368 519 C 369.98 519 371.96 519 374 519 C 374 519.66 374 520.32 374 521 C 372.02 521 370.04 521 368 521 C 368 520.34 368 519.68 368 519 Z" style="isolation: isolate; fill: rgb(255, 255, 255);"/>
  </g>
</svg>