<svg xmlns="http://www.w3.org/2000/svg" id="svg2" viewBox="-595.88 -149.83 2188.9 1165.42">
  <desc>Source: openclipart.org/detail/209545</desc>
  <defs>
    <clipPath id="clippath">
      <rect class="st0" width="1920" height="2383.3" style="fill: none;"/>
    </clipPath>
  </defs>
  <g id="b" transform="matrix(1, 0, 0, 0.553107, -690.14797, -65.500902)" style="">
    <g id="c" transform="matrix(1, 0, 0, 0.731678, 94.268344, 103.02428)" style="">
      <polygon class="st2" points="1920 2526.66 1076.9 2526.66 960 2530.56 843.1 2526.66 0 2526.66 0 143.318 1920 143.318 1920 2526.66" style="fill: rgb(248, 177, 120); isolation: isolate; opacity: 0.1;"/>
    </g>
    <g id="c1" data-name="c" transform="matrix(1, 0, 0, 1, -217.431617, 223.783668)">
      <g class="st4" style="clip-path: url(&quot;#clippath&quot;);">
        <g>
          <g class="st1" style="opacity: 0.1;">
            <g>
              <path class="st3" d="M 2108.1 712.044 L 2331.2 488.944 L 2092 249.992 L 1850.6 491.144 L 1786.2 1190.55 C 1781.8 1236.9 1763.8 1275.95 1732.1 1307.68 L 1476.1 1563.97 L 1630.7 1718.58 L 2005.7 1343.32 L 2053.9 831.844 C 2058.3 783.544 2076.3 743.644 2108 711.844 L 2108.1 712.044 Z" style="fill: rgb(102, 111, 157);"/>
              <path class="st3" d="M 886.3 1261.29 C 886 1230.85 897.9 1203.52 921.8 1179.7 L 1212.2 889.1 L 1313.9 990.8 L 1032.3 1272.7 L 1271.5 1512.16 L 1553.1 1230.25 L 1553.9 1231.05 L 1618.2 549 C 1622.6 500.736 1640.6 460.88 1672.3 429.114 L 1904.2 197.472 C 1928.1 173.598 1955.3 161.81 1985.8 162.01 C 1992.8 162.01 1999.5 162.91 2006.1 164.208 L 1465.4 -376.25 L 353.7 734.8 L 887.1 1268.5 C 886.9 1266.09 886.3 1263.79 886.3 1261.29 Z" style="fill: rgb(102, 111, 157);"/>
              <polygon class="st3" points="2345.9 23.7 2094.9 274.8 2063.5 615.4 2500.6 178.3 2345.9 23.7" style="fill: rgb(102, 111, 157);"/>
            </g>
          </g>
          <g class="st1" style="opacity: 0.1;">
            <g/>
          </g>
        </g>
      </g>
    </g>
  </g>
</svg>