<svg xmlns="http://www.w3.org/2000/svg" id="svg2" viewBox="-92.01 -376.04 896.23 1065.85">
  <desc>Source: openclipart.org/detail/209545</desc>
  <defs>
    <clipPath id="clippath">
      <rect class="st0" width="1920" height="2383.3" style="fill: none;"/>
    </clipPath>
  </defs>
  <path id="path222" style="fill: rgb(255, 255, 255);" d="M 96.878 426.786 C 107.111 427.17 114.523 430.224 119.203 435.826 C 123.89 440.512 124.836 445.341 122.023 450.497 C 119.203 454.714 113.665 456.83 105.235 456.83 C 97.283 456.354 90.329 454.254 84.236 450.497 C 78.706 446.769 77.519 441.847 80.814 435.826 C 84.472 429.734 89.869 426.786 96.878 426.786 Z"/>
  <g id="b" transform="matrix(1, 0, 0, 1, -235.258384, -929.280301)">
    <g id="c" style="" transform="matrix(0.760886, 0, 0, 1, 167.601186, -26.407969)">
      <polygon class="st2" points="1072.41 1643.1 587.447 1643.1 526.565 1645.5 452.962 1643.1 -32 1643.1 -32 737.643 1072.41 737.643 1072.41 1643.1" style="fill: rgb(248, 177, 120); isolation: isolate; opacity: 0.1;"/>
    </g>
    <g id="c1" data-name="c" transform="matrix(1, 0, 0, 0.930798, 14.527577, -627.863117)" style="">
      <g class="st4" style="clip-path: url(&quot;#clippath&quot;);" transform="matrix(0.375347, 0, 0, 0.372084, 275.953835, 1507.126998)">
        <g>
          <g class="st1" style="opacity: 0.1;" transform="matrix(1.02783, 0, 0, 1.027999, -677.042501, 520.500443)">
            <g>
              <path class="st3" d="M 2034.45 40.733 L 2257.55 -182.37 L 2018.36 -421.57 L 1776.95 -180.17 L 1712.56 519.033 C 1708.15 565.333 1690.15 604.333 1658.45 636.033 L 1402.45 892.037 L 1557.06 1046.64 L 1932.06 671.637 L 1980.26 160.533 C 1984.65 112.233 2002.65 72.333 2034.36 40.533 L 2034.45 40.733 Z" style="fill: rgb(102, 111, 157);"/>
              <path class="st3" d="M 895.91 508.793 C 895.61 478.393 907.51 451.093 931.41 427.293 L 1221.81 136.893 L 1323.51 238.593 L 1041.91 520.193 L 1281.11 759.393 L 1562.71 477.793 L 1563.51 478.593 L 1627.81 -203.2 C 1632.21 -251.51 1650.21 -291.4 1681.91 -323.2 L 1913.81 -555.11 C 1937.71 -579.01 1964.91 -590.8 1995.41 -590.61 C 2002.41 -590.61 2009.11 -589.71 2015.71 -588.4 L 1475.01 -1129.1 L 363.31 -17.407 L 896.71 515.993 C 896.51 513.593 895.91 511.293 895.91 508.793 Z" style="fill: rgb(102, 111, 157);"/>
              <polygon class="st3" points="2445.47 61.358 2194.47 312.458 2163.07 653.058 2600.16 215.958 2445.47 61.358" style="fill: rgb(102, 111, 157);"/>
            </g>
          </g>
          <g class="st1" style="opacity: 0.1;" transform="matrix(0.580881, 0, 0, 0.43158, 402.02937, 1057.163117)">
            <g transform="matrix(1, 0, 0, 1, 222.862205, -43.805314)">
              <path class="st3" d="M309.1,2185.8l223.1-223.1-239.2-239.2-241.4,241.4L-12.7,2664.2c-4.4,46.3-22.4,85.3-54.1,117l-256,256,154.6,154.6,375-375,48.2-511.1c4.4-48.3,22.4-88.2,54.1-120h0Z" style="fill: rgb(102, 111, 157);"/>
              <path class="st3" d="M-817.7,2677c-.3-30.4,11.6-57.7,35.5-81.5l290.4-290.4,101.7,101.7-281.6,281.6,239.2,239.2,281.6-281.6.8.8,64.3-681.8c4.4-48.3,22.4-88.2,54.1-120l231.9-231.9c23.9-23.9,51.1-35.7,81.6-35.5,7,0,13.7.9,20.3,2.2L-238.7,1039.2l-1111.6,1111.6,533.4,533.4c-.2-2.4-.8-4.7-.8-7.2h0Z" style="fill: rgb(102, 111, 157);"/>
              <polygon class="st3" points="641.9 2072.5 390.8 2323.6 359.5 2664.2 796.6 2227.1 641.9 2072.5" style="fill: rgb(102, 111, 157);"/>
            </g>
          </g>
        </g>
      </g>
    </g>
  </g>
</svg>